# xmcd
#
# Track frame offsets: 
#        150
#        23787
#        43921
#        67351
#        90862
#        116477
#        135195
#        160049
#        181481
#        210999
#        228800
#        244656
#        274261
#
# Disc length: 3989 seconds
#
# Revision: 4
# Processed by: cddbd v1.5.2PL0 Copyright (c) Steve Scherf et al.
# Submitted via: ExactAudioCopy v0.99pb5
#
DISCID=a60f930d
DTITLE=Various Artist - Hedkandi - Serve Chilled (HEDK079) - CD1 ONE
DYEAR=2008
DGENRE=Ambient
TTITLE0=Groove Armada - Paris
TTITLE1=Samantha James - Right Now
TTITLE2=Tyrrell - As I Listen
TTITLE3=Long Range - Lie Down
TTITLE4=StoneBridge Feat. Therese - Put 'Em High (Claes Rosen Lounge M
TTITLE4=ix)
TTITLE5=Blu Mar Ten - Drive
TTITLE6=J Majik and Wickaman - Crazy World (Afterlife's Dancing At Sunse
TTITLE6=t Mix)
TTITLE7=Moon and Benk - Pimp My Style
TTITLE8=Definition Part 2 Feat. L'Enfant - Hunterville
TTITLE9=Blue States - Allies
TTITLE10=Neon Heights - Walked Out This Morning
TTITLE11=José González - Killing For Love (Beatfanatic Remix)
TTITLE12=Headstrong Feat. Kirsty Hawkshaw - Love Calls (Floris De Hann
TTITLE12=Mix)
EXTD=
EXTT0=
EXTT1=
EXTT2=
EXTT3=
EXTT4=
EXTT5=
EXTT6=
EXTT7=
EXTT8=
EXTT9=
EXTT10=
EXTT11=
EXTT12=
PLAYORDER=
